<svg id="Layer_1" data-name="Layer 1" xmlns="http://www.w3.org/2000/svg" viewBox="0 0 489.41 396.59"><defs><style>.cls-1{fill:#fff;}.cls-2{fill:none;stroke:#fff;stroke-miterlimit:10;stroke-width:6px;}</style></defs><title>logo</title><path class="cls-1" d="M401.27,57.92l-3.94-2.54L395.2,54l-2.63-1.54-3-1.78c-1.08-.63-2.29-1.22-3.52-1.88a123.06,123.06,0,0,0-18.46-8,121,121,0,0,0-25.05-5.67c-2.32-.34-4.72-0.43-7.14-0.65-1.21-.12-2.44-0.1-3.68-0.15s-2.48-.08-3.74-0.09a142.65,142.65,0,0,0-15.56.89,174.21,174.21,0,0,0-32.94,7.07,252.78,252.78,0,0,0-33.7,13.53,348.9,348.9,0,0,0-33,18.33c-10.83,6.66-21.29,14-31.46,21.35-2.51,1.89-5,3.73-7.51,5.65L170,103.87l-3.67,2.85c-4.87,3.79-9.6,7.66-14.26,11.46-9.26,7.67-18.09,15.27-26.3,22.69s-15.88,14.54-22.86,21.26c-14,13.42-25.23,25-33,33.32C66,199.6,63,202.87,61,205.15l-3.13,3.49,0.6-1c0.41-.68,1-1.71,1.79-3,1.61-2.6,4-6.43,7.17-11.16s7.21-10.41,12-16.76,10.4-13.4,16.74-20.89,13.45-15.41,21.23-23.56,16.28-16.47,25.39-24.76c4.54-4.16,9.27-8.28,14.13-12.36s9.87-8.13,15-12.1C182.17,75.08,193,67.5,204.24,60.48c5.63-3.49,11.39-6.8,17.19-10,2.93-1.55,5.83-3.13,8.81-4.56l4.44-2.17,4.48-2.07c3-1.4,6-2.63,9-3.92s6-2.42,9.1-3.46c6.05-2.25,12.19-4.09,18.28-5.71a165.47,165.47,0,0,1,36-5.43c1.45,0,2.89-.1,4.32-0.11l4.27,0.07,2.11,0,2.09,0.13,4.12,0.28c1.36,0.14,2.71.31,4,.47s2.66,0.28,4,.53c2.6,0.47,5.16.8,7.61,1.45a114.67,114.67,0,0,1,25.86,9.09,108.67,108.67,0,0,1,17.8,11C388.85,47,390,47.73,391,48.55l2.75,2.34,2.34,2,1.85,1.76Z" transform="translate(-3.52 -23.06)"/><path class="cls-1" d="M107.24,212.16c2.76-3.41,5.65-6.72,8.59-10s5.93-6.48,9-9.66c6.1-6.33,12.39-12.48,18.8-18.51s13-11.84,19.76-17.53S177,145.29,184,139.92s14.22-10.47,21.53-15.45,14.77-9.74,22.35-14.32,15.32-8.92,23.2-13,15.89-8,24-11.53,16.44-6.85,24.84-9.87,16.94-5.66,25.58-8c4.31-1.21,8.67-2.21,13-3.26s8.76-1.89,13.18-2.64c8.83-1.58,17.74-2.83,26.7-3.57l3.36-.31,3.37-.21c2.25-.13,4.49-0.29,6.74-0.36l6.75-.17c2.25-.08,4.5,0,6.76,0,4.51,0,9,.26,13.51.43,4.49,0.36,9,.6,13.48,1.16s8.95,1.15,13.41,1.81c2.23,0.33,4.44.8,6.66,1.19s4.44,0.81,6.63,1.33l6.61,1.47,6.55,1.69,3.27,0.85,3.24,1,6.48,1.94,7.68,2.3-2.51,7.75a179.53,179.53,0,0,1-10.59,25.24l-1.51,3-1.6,3c-1.08,2-2.12,4-3.24,5.92-2.29,3.86-4.5,7.78-7,11.52-4.77,7.6-10,14.84-15.42,22L446.89,156c-1.42,1.73-2.75,3.53-4.24,5.2l-4.39,5.07-2.2,2.53-2.29,2.45c-3.07,3.25-6.06,6.57-9.3,9.66l-4.77,4.71c-1.59,1.57-3.29,3-4.93,4.55l-5,4.51c-1.68,1.47-3.43,2.87-5.14,4.31l-5.16,4.28-5.34,4.06-5.34,4-5.52,3.81-5.52,3.8c-1.88,1.2-3.79,2.37-5.69,3.54L366.38,226c-1.92,1.14-3.91,2.17-5.86,3.26l-5.87,3.23c-1,.56-2,1-3,1.53l-3,1.46c-4,1.92-8,4-12.15,5.62l-6.17,2.58L327.25,245c-1,.4-2.1.76-3.15,1.14l-6.3,2.24-3.15,1.12-1.57.56c-0.53.18-1.07,0.32-1.6,0.48l-12.83,3.73c-4.33,1-8.67,2-13,3-1.09.23-2.16,0.53-3.25,0.71l-3.29.56-6.57,1.11-3.28.55c-1.09.19-2.18,0.38-3.29,0.48l-6.61.73c-4.41.47-8.79,1.07-13.23,1.17l-6.63.3-3.31.15c-1.1,0-2.2.12-3.31,0.08L219.66,263c-1.1,0-2.2,0-3.3-.06l-3.3-.23-6.59-.46-6.58-.47c-1.1-.06-2.19-0.23-3.28-0.37l-3.27-.43-13.06-1.73-12.93-2.45c-2.15-.43-4.3-0.82-6.44-1.28l-6.37-1.61q-6.37-1.59-12.7-3.24l12.94,2,6.45,1c2.16,0.27,4.33.46,6.5,0.7l13,1.43,13,0.72,3.25,0.18c1.08,0.06,2.16.14,3.25,0.12l6.5,0,6.49,0,3.24,0c1.08,0,2.16-.1,3.24-0.15l12.93-.66c1.08,0,2.15-.17,3.22-0.29l3.22-.35,6.42-.7,3.21-.34c0.53-.06,1.07-0.1,1.6-0.17l1.59-.26,6.37-1,6.36-1c1.06-.14,2.11-0.39,3.16-0.62l3.14-.7,6.28-1.39,3.14-.69c1-.22,2.07-0.56,3.1-0.84,4.12-1.17,8.25-2.3,12.36-3.5l12.14-4.15c0.5-.17,1-0.33,1.51-0.52l1.49-.6,3-1.19,5.95-2.38c1-.4,2-0.78,3-1.2l2.9-1.35,5.8-2.7c3.91-1.71,7.63-3.82,11.41-5.77l2.83-1.49c0.95-.49,1.89-1,2.8-1.55L354,218c1.83-1.1,3.68-2.14,5.48-3.28l5.33-3.53,5.33-3.52,5.17-3.76,5.17-3.75,5-4,5-4,4.81-4.2c1.6-1.41,3.22-2.78,4.8-4.21l4.65-4.38c1.53-1.48,3.13-2.88,4.61-4.41l4.47-4.57c3-3,5.82-6.21,8.69-9.36l2.14-2.37,2.05-2.45,4.11-4.88c1.4-1.6,2.65-3.33,4-5l3.93-5c5-6.85,10-13.78,14.4-21,2.31-3.56,4.39-7.25,6.53-10.91,1-1.84,2-3.72,3-5.57l1.5-2.79,1.39-2.83a164.9,164.9,0,0,0,9.6-23l5.17,10.05-6.1-1.85-3.05-.92-3.08-.81L462,80.1l-6.22-1.41c-2.07-.5-4.16-0.88-6.24-1.27s-4.17-.83-6.27-1.15l-6.3-1q-1.57-.26-3.16-0.43l-3.16-.38c-4.21-.58-8.46-0.85-12.69-1.24-4.25-.2-8.49-0.53-12.75-0.54-2.13,0-4.25-.13-6.38-0.07l-6.39.09c-2.13,0-4.26.18-6.38,0.26l-3.19.14-3.19.23c-8.51.55-17,1.58-25.44,2.94-4.23.64-8.42,1.48-12.63,2.26s-8.39,1.75-12.54,2.81-8.31,2.14-12.45,3.26l-6.18,1.83c-2.06.6-4.1,1.3-6.15,1.94-8.18,2.65-16.3,5.52-24.29,8.76S264,103.82,256.21,107.5s-15.52,7.64-23.16,11.73-15.17,8.41-22.58,12.94-14.71,9.25-21.92,14.11-14.35,9.87-21.35,15.05-13.88,10.56-20.7,16-13.48,11.11-20,16.91S113.46,206,107.24,212.16Z" transform="translate(-3.52 -23.06)"/><path class="cls-1" d="M413.81,126l0.14,0.43a8.8,8.8,0,0,1,.35,1.3,12.85,12.85,0,0,1-.09,5.23,25,25,0,0,1-3.28,7.79,60.27,60.27,0,0,1-7,9.08C398.08,156.19,390,163,380.29,170a371.25,371.25,0,0,1-34.16,21.48C333.22,198.68,318.9,206,303.38,213a525.46,525.46,0,0,1-49.94,19.48,334.05,334.05,0,0,1-56.19,13.66,155.6,155.6,0,0,1-30.57,1.67,63.85,63.85,0,0,1-16.42-2.84,39.2,39.2,0,0,1-4.33-1.72,31,31,0,0,1-4.4-2.57,22.78,22.78,0,0,1-4.19-3.89,19.24,19.24,0,0,1-3.18-5.42l-0.41-1.23s-0.06-.21-0.1-0.37l-0.12-.47-0.21-.95c-0.08-.34-0.11-0.59-0.14-0.84l-0.1-.78c-0.07-.52-0.08-1-0.1-1.53a22.77,22.77,0,0,1,.59-5.69,31,31,0,0,1,1.61-4.83,39.22,39.22,0,0,1,2.12-4.15,64.27,64.27,0,0,1,10.46-13,156,156,0,0,1,24.07-18.92,332.73,332.73,0,0,1,51.24-26.82,522,522,0,0,1,50.39-18.3q12.2-3.74,23.84-6.72c7.73-2,15.25-3.76,22.49-5.3a371.23,371.23,0,0,1,39.84-6.38c11.95-1.15,22.46-1.37,31-.45a60.31,60.31,0,0,1,11.26,2.2,24.94,24.94,0,0,1,7.6,3.7,12.84,12.84,0,0,1,3.52,3.87,8.79,8.79,0,0,1,.6,1.21Zm0,0-0.18-.42a8.79,8.79,0,0,0-.6-1.2,12.81,12.81,0,0,0-3.54-3.83c-3.68-2.81-10.32-5-18.86-5.66a114.59,114.59,0,0,0-14.2-.22c-5.17.22-10.74,0.78-16.65,1.59s-12.18,1.95-18.72,3.36-13.38,3.13-20.45,5.11-14.36,4.31-21.85,6.85-15.13,5.45-22.93,8.57c-15.59,6.24-31.71,13.56-47.88,22-8.08,4.21-16.19,8.64-24.19,13.42-4,2.39-8,4.82-11.93,7.37s-7.82,5.19-11.65,7.89-7.54,5.57-11.13,8.52a117.79,117.79,0,0,0-10.16,9.24,54.56,54.56,0,0,0-7.86,9.93,23.41,23.41,0,0,0-1.22,2.41,15.44,15.44,0,0,0-.71,2.15,6.77,6.77,0,0,0-.16,1.62,1.67,1.67,0,0,0,0,.3l0,0.14s0,0.11,0,.07a0.07,0.07,0,0,0,0,0l0,0s0,0,0,.07l0.14,0.44,0.07,0.22c0-.09.17,0.5-0.06-0.14a4.73,4.73,0,0,0,1.73,2,15.45,15.45,0,0,0,2,1.15,23.41,23.41,0,0,0,2.51,1,38.42,38.42,0,0,0,5.93,1.45c2.1,0.38,4.3.65,6.53,0.83a119,119,0,0,0,13.73.24c4.64-.13,9.32-0.47,14-0.93a403.53,403.53,0,0,0,54.83-9.94c17.69-4.35,34.64-9.51,50.47-15.1q11.87-4.2,22.88-8.69c7.3-3,14.32-6.08,20.94-9.27s12.9-6.37,18.74-9.65,11.31-6.53,16.28-9.83,9.54-6.54,13.57-9.79a114.61,114.61,0,0,0,10.53-9.53c6-6.16,9.53-12.16,10.44-16.7a12.82,12.82,0,0,0,.13-5.21,8.79,8.79,0,0,0-.34-1.3Z" transform="translate(-3.52 -23.06)"/><path class="cls-1" d="M47.12,240.21L45,243.63c-0.7,1.11-1.59,2.46-2.57,4.08s-2.12,3.48-3.41,5.53l-4.11,6.91c-1.42,2.55-3.05,5.24-4.59,8.22A155.9,155.9,0,0,0,21,288.54,76,76,0,0,0,15.93,313a30.47,30.47,0,0,0,0,3.26,31.52,31.52,0,0,0,.18,3.29l0.17,1.65,0.09,0.83,0,0.41v0.1a0.47,0.47,0,1,1,0-.08l0,0.23,0.31,1.84c0.11,0.56.24,1,.35,1.44s0.26,1,.41,1.48,0.29,1,.49,1.54l0.54,1.53,0.63,1.52a44.13,44.13,0,0,0,3.1,6c0.56,1,1.26,1.92,1.89,2.87s1.36,1.88,2.12,2.78A61.66,61.66,0,0,0,31.09,349a80.84,80.84,0,0,0,11.47,9.2,106,106,0,0,0,28,12.66,134.31,134.31,0,0,0,15.32,3.67c1.29,0.26,2.59.46,3.9,0.66s2.59,0.44,3.9.6l3.91,0.52,4.07,0.46,16.1,1.76c5.33,0.58,10.6,1.12,15.79,1.75,10.39,1.18,20.45,2.47,30,3.91s18.55,3.07,26.83,4.93a167.36,167.36,0,0,1,22.38,6.48c6.51,2.52,12.16,5.4,15.94,9.19a16.43,16.43,0,0,1,2.34,3,10.3,10.3,0,0,1,1.2,3.2,9.2,9.2,0,0,1-.52,5.13,13.07,13.07,0,0,1-1.49,2.67l-0.61.83,0.4-.95a14.91,14.91,0,0,0,.81-2.81,7.77,7.77,0,0,0-.45-4.35,8.39,8.39,0,0,0-1.44-2.26,13.62,13.62,0,0,0-2.34-2c-3.7-2.53-9.2-4.31-15.62-5.71a207.61,207.61,0,0,0-22.1-3.25c-8.19-.85-17.13-1.51-26.62-2.11s-19.51-1.14-29.92-1.75c-5.2-.28-10.5-0.63-15.87-1l-8.11-.55-8.22-.67-4.12-.36-4.3-.46c-1.43-.14-2.87-0.35-4.3-0.56s-2.87-.42-4.3-0.69a147,147,0,0,1-17.12-4A112.89,112.89,0,0,1,33.84,371c-9.75-6.8-18.27-15.57-23.83-26a53.73,53.73,0,0,1-5.8-16.54c-0.12-.75-0.26-1.58-0.33-2.25L3.71,324.4l0-.23s0-.44,0-0.31v-0.13l0-.51,0-1-0.06-2c-0.08-1.35,0-2.69.09-4A37,37,0,0,1,4,312.18a71.62,71.62,0,0,1,3.26-14.7l1.2-3.36C8.8,293,9.3,292,9.73,290.91s0.87-2.11,1.36-3.11l1.47-3a134.61,134.61,0,0,1,12.56-19.77c2.05-2.78,4.1-5.26,6-7.56s3.71-4.32,5.33-6.16c3.31-3.65,6-6.41,7.83-8.28Z" transform="translate(-3.52 -23.06)"/><circle class="cls-2" cx="72.01" cy="255.52" r="21.64"/><circle class="cls-1" cx="79.28" cy="253.19" r="14.04"/></svg>