<?xml version="1.0" encoding="utf-8"?>
<!-- Generator: Adobe Illustrator 19.2.1, SVG Export Plug-In . SVG Version: 6.00 Build 0)  -->
<svg version="1.1" id="Layer_1" xmlns="http://www.w3.org/2000/svg" xmlns:xlink="http://www.w3.org/1999/xlink" x="0px" y="0px"
	 viewBox="0 0 489.4 396.6" style="enable-background:new 0 0 489.4 396.6;" xml:space="preserve">
<style type="text/css">
	.st0{fill:#FFFFFF;stroke:#FFFFFF;stroke-width:4;stroke-miterlimit:10;}
	.st1{fill:#FFFFFF;stroke:#FFFFFF;stroke-width:2;stroke-miterlimit:10;}
	.st2{fill:none;stroke:#FFFFFF;stroke-width:8;stroke-miterlimit:10;}
	.st3{fill:#FFFFFF;}
</style>
<title>logo</title>
<path class="st0" d="M382.7,50.9l-3.6-2.3l-1.9-1.2l-2.4-1.4l-2.7-1.6c-1-0.6-2.1-1.1-3.2-1.7c-5.3-2.9-10.9-5.3-16.6-7.2
	c-7.3-2.5-14.9-4.2-22.6-5.1c-2.1-0.3-4.3-0.4-6.4-0.6c-1.1-0.1-2.2-0.1-3.3-0.1c-1.1,0-2.2-0.1-3.4-0.1c-4.7,0-9.4,0.3-14,0.8
	c-10.1,1.2-20,3.3-29.7,6.4c-10.4,3.3-20.6,7.4-30.4,12.2c-10.2,5-20.1,10.5-29.8,16.5c-9.8,6-19.2,12.6-28.4,19.3
	c-2.3,1.7-4.5,3.4-6.8,5.1l-3.4,2.5l-3.3,2.6c-4.4,3.4-8.7,6.9-12.9,10.3c-8.4,6.9-16.3,13.8-23.7,20.5
	c-7.4,6.7-14.3,13.1-20.6,19.2C101,157,90.9,167.4,83.9,174.9c-3.5,3.7-6.2,6.7-8,8.7l-2.8,3.1l0.5-0.9c0.4-0.6,0.9-1.5,1.6-2.7
	c1.5-2.3,3.6-5.8,6.5-10.1c2.9-4.3,6.5-9.4,10.8-15.1c4.3-5.7,9.4-12.1,15.1-18.8c5.7-6.8,12.1-13.9,19.1-21.2
	c7-7.4,14.7-14.9,22.9-22.3c4.1-3.8,8.4-7.5,12.7-11.1c4.4-3.7,8.9-7.3,13.5-10.9c9.2-7.2,19-14,29.1-20.4c5.1-3.1,10.3-6.1,15.5-9
	c2.6-1.4,5.3-2.8,7.9-4.1l4-2l4-1.9c2.7-1.3,5.4-2.4,8.1-3.5c2.7-1.2,5.4-2.2,8.2-3.1c5.5-2,11-3.7,16.5-5.1
	c10.6-2.8,21.5-4.5,32.5-4.9c1.3,0,2.6-0.1,3.9-0.1l3.9,0.1h1.9l1.9,0.1l3.7,0.3c1.2,0.1,2.4,0.3,3.6,0.4c1.2,0.1,2.4,0.3,3.6,0.5
	c2.3,0.4,4.7,0.7,6.9,1.3c8.1,1.8,15.9,4.5,23.3,8.2c5.7,2.8,11,6.1,16.1,9.9c1,0.8,2.1,1.5,3,2.2l2.5,2.1l2.1,1.8l1.7,1.6
	L382.7,50.9z"/>
<path class="st0" d="M117.6,190c2.5-3.1,5.1-6.1,7.7-9c2.7-3,5.3-5.8,8.1-8.7c5.5-5.7,11.2-11.3,17-16.7s11.7-10.7,17.8-15.8
	c6.1-5.1,12.3-10.1,18.6-14.9c6.3-4.8,12.8-9.4,19.4-13.9s13.3-8.8,20.2-12.9c6.8-4.1,13.8-8,20.9-11.7c7.1-3.7,14.3-7.2,21.6-10.4
	c7.3-3.2,14.8-6.2,22.4-8.9s15.3-5.1,23.1-7.2c3.9-1.1,7.8-2,11.7-2.9s7.9-1.7,11.9-2.4c8-1.4,16-2.6,24.1-3.2l3-0.3l3-0.2
	c2-0.1,4-0.3,6.1-0.3l6.1-0.2c2-0.1,4.1,0,6.1,0c4.1,0,8.1,0.2,12.2,0.4c4,0.3,8.1,0.5,12.2,1c4,0.5,8.1,1,12.1,1.6
	c2,0.3,4,0.7,6,1.1s4,0.7,6,1.2l6,1.3l5.9,1.5l2.9,0.8l2.9,0.9l5.8,1.7l6.9,2.1l-2.3,7c-2.6,7.8-5.8,15.4-9.6,22.8l-1.4,2.7
	l-1.4,2.7c-1,1.8-1.9,3.6-2.9,5.3c-2.1,3.5-4.1,7-6.3,10.4c-4.3,6.9-9,13.4-13.9,19.8l-3.7,4.7c-1.3,1.6-2.5,3.2-3.8,4.7l-4,4.6
	l-2,2.3l-2.1,2.2c-2.8,2.9-5.5,5.9-8.4,8.7l-4.3,4.2c-1.4,1.4-3,2.7-4.4,4.1l-4.5,4.1c-1.5,1.3-3.1,2.6-4.6,3.9l-4.7,3.9l-4.8,3.7
	l-4.8,3.6l-5,3.4l-5,3.4c-1.7,1.1-3.4,2.1-5.1,3.2l-5.1,3.2c-1.7,1-3.5,2-5.3,2.9l-5.3,2.9c-0.9,0.5-1.8,0.9-2.7,1.4l-2.7,1.3
	c-3.6,1.7-7.2,3.6-11,5.1l-5.6,2.3l-2.8,1.2c-0.9,0.4-1.9,0.7-2.8,1l-5.7,2l-2.8,1l-1.4,0.5c-0.5,0.2-1,0.3-1.4,0.4l-11.6,3.4
	c-3.9,0.9-7.8,1.8-11.7,2.7c-1,0.2-1.9,0.5-2.9,0.6l-3,0.5l-5.9,1l-3,0.5c-1,0.2-2,0.3-3,0.4l-6,0.7c-4,0.4-7.9,1-11.9,1.1l-6,0.3
	l-3,0.1c-1,0-2,0.1-3,0.1l-11.9-0.1c-1,0-2,0-3-0.1l-3-0.2l-5.9-0.4l-5.9-0.4c-1-0.1-2-0.2-3-0.3l-2.9-0.4l-11.8-1.6l-11.7-2.2
	c-1.9-0.4-3.9-0.7-5.8-1.2l-5.7-1.5c-3.8-1-7.6-1.9-11.5-2.9l11.7,1.8l5.8,0.9c1.9,0.2,3.9,0.4,5.9,0.6l11.7,1.3l11.7,0.6l2.9,0.2
	c1,0.1,1.9,0.1,2.9,0.1h5.9h5.9h2.9c1,0,1.9-0.1,2.9-0.1l11.7-0.6c1,0,1.9-0.2,2.9-0.3l2.9-0.3l5.8-0.6l2.9-0.3
	c0.5-0.1,1-0.1,1.4-0.2l1.4-0.2l5.7-0.9l5.7-0.9c1-0.1,1.9-0.4,2.9-0.6l2.8-0.6l5.7-1.3l2.8-0.6c0.9-0.2,1.9-0.5,2.8-0.8
	c3.7-1.1,7.4-2.1,11.1-3.2l10.9-3.7c0.5-0.2,0.9-0.3,1.4-0.5l1.3-0.5l2.7-1.1l5.4-2.1c0.9-0.4,1.8-0.7,2.7-1.1l2.6-1.2l5.2-2.4
	c3.5-1.5,6.9-3.4,10.3-5.2l2.6-1.3c0.9-0.4,1.7-0.9,2.5-1.4l4.8-2.9c1.7-1,3.3-1.9,4.9-3l4.8-3.2l4.8-3.2l4.7-3.4l4.7-3.4l4.5-3.6
	l4.5-3.6l4.3-3.8c1.4-1.3,2.9-2.5,4.3-3.8l4.2-4c1.4-1.3,2.8-2.6,4.2-4l4-4.1c2.7-2.7,5.2-5.6,7.8-8.4l1.9-2.1l1.8-2.2l3.7-4.4
	c1.3-1.4,2.4-3,3.6-4.5l3.5-4.5c4.5-6.2,9-12.4,13-18.9c2.1-3.2,4-6.5,5.9-9.8c0.9-1.7,1.8-3.4,2.7-5l1.4-2.5l1.3-2.6
	c3.4-6.7,6.3-13.6,8.7-20.7l4.7,9.1l-5.5-1.7l-2.8-0.8l-2.8-0.7l-5.5-1.4l-5.6-1.3c-1.9-0.5-3.8-0.8-5.6-1.1c-1.9-0.4-3.8-0.7-5.7-1
	l-5.7-0.9c-0.9-0.2-1.9-0.3-2.9-0.4l-2.8-0.3c-3.8-0.5-7.6-0.8-11.4-1.1c-3.8-0.2-7.7-0.5-11.5-0.5c-1.9,0-3.8-0.1-5.8-0.1l-5.8,0.1
	c-1.9,0-3.8,0.2-5.8,0.2l-2.9,0.1l-2.9,0.2c-7.7,0.5-15.3,1.4-22.9,2.7c-3.8,0.6-7.6,1.3-11.4,2s-7.6,1.6-11.3,2.5
	c-3.7,1-7.5,1.9-11.2,2.9l-5.6,1.7c-1.9,0.5-3.7,1.2-5.5,1.7c-7.4,2.4-14.7,5-21.9,7.9c-7.2,2.9-14.4,6-21.5,9.4
	c-7,3.3-14,6.9-20.9,10.6c-6.9,3.7-13.7,7.6-20.4,11.7c-6.7,4.1-13.3,8.3-19.8,12.7c-6.5,4.4-12.9,8.9-19.3,13.6
	s-12.5,9.5-18.7,14.4c-6.2,4.9-12.2,10-18,15.3C129,179.1,123.2,184.4,117.6,190z"/>
<path class="st0" d="M394,112.3l0.1,0.4c0.1,0.4,0.2,0.8,0.3,1.2c0.3,1.6,0.3,3.2-0.1,4.7c-0.6,2.5-1.6,4.9-3,7
	c-1.8,2.9-4,5.7-6.3,8.2c-5.3,5.7-12.6,11.9-21.3,18.2c-9.9,7-20.2,13.5-30.8,19.4c-11.6,6.5-24.6,13.1-38.6,19.4
	c-14.7,6.6-29.7,12.5-45,17.6c-16.5,5.6-33.5,9.7-50.7,12.3c-9.1,1.4-18.4,1.9-27.6,1.5c-5-0.2-10-1.1-14.8-2.6
	c-1.3-0.4-2.6-1-3.9-1.6c-1.4-0.7-2.7-1.4-4-2.3c-1.4-1-2.7-2.2-3.8-3.5c-1.2-1.5-2.2-3.1-2.9-4.9l-0.4-1.1c0,0-0.1-0.2-0.1-0.3
	l-0.1-0.4l-0.2-0.9c-0.1-0.3-0.1-0.5-0.1-0.8l-0.1-0.7c-0.1-0.5-0.1-0.9-0.1-1.4c0-1.7,0.1-3.5,0.5-5.1c0.4-1.5,0.8-2.9,1.5-4.4
	c0.6-1.3,1.2-2.5,1.9-3.7c2.6-4.3,5.8-8.2,9.4-11.7c6.7-6.4,13.9-12.1,21.7-17.1c14.7-9.4,30.1-17.5,46.2-24.2
	c14.9-6.3,30-11.8,45.4-16.5c7.3-2.2,14.5-4.3,21.5-6.1c7-1.8,13.8-3.4,20.3-4.8c11.9-2.6,23.9-4.5,35.9-5.8c10.8-1,20.3-1.2,28-0.4
	c3.4,0.3,6.8,1,10.2,2c2.5,0.7,4.8,1.8,6.9,3.3c1.3,0.9,2.4,2.1,3.2,3.5c0.2,0.3,0.4,0.7,0.5,1.1L394,112.3z M394,112.3l-0.2-0.4
	c-0.2-0.4-0.3-0.7-0.5-1.1c-0.8-1.4-1.9-2.5-3.2-3.5c-3.3-2.5-9.3-4.5-17-5.1c-4.3-0.3-8.5-0.4-12.8-0.2c-4.7,0.2-9.7,0.7-15,1.4
	c-5.3,0.7-11,1.8-16.9,3c-5.9,1.3-12.1,2.8-18.4,4.6c-6.4,1.8-13,3.9-19.7,6.2c-6.8,2.3-13.6,4.9-20.7,7.7
	c-14.1,5.6-28.6,12.2-43.2,19.8c-7.3,3.8-14.6,7.8-21.8,12.1c-3.6,2.2-7.2,4.3-10.8,6.6s-7.1,4.7-10.5,7.1s-6.8,5-10,7.7
	c-3.2,2.6-6.3,5.4-9.2,8.3c-2.7,2.7-5.1,5.7-7.1,9c-0.4,0.7-0.8,1.4-1.1,2.2c-0.3,0.6-0.5,1.3-0.6,1.9c-0.1,0.5-0.2,1-0.1,1.5
	c0,0.1,0,0.2,0,0.3v0.1c0,0,0,0.1,0,0.1l0,0l0,0c0,0,0,0,0,0.1l0.1,0.4l0.1,0.2c0-0.1,0.2,0.5-0.1-0.1c0.3,0.7,0.9,1.4,1.6,1.8
	c0.6,0.4,1.2,0.7,1.8,1c0.7,0.3,1.5,0.6,2.3,0.9c1.7,0.6,3.5,1,5.3,1.3c1.9,0.3,3.9,0.6,5.9,0.7c4.1,0.3,8.3,0.4,12.4,0.2
	c4.2-0.1,8.4-0.4,12.6-0.8c16.7-1.8,33.2-4.8,49.5-9c16-3.9,31.2-8.6,45.5-13.6c7.1-2.5,14-5.1,20.6-7.8c6.6-2.7,12.9-5.5,18.9-8.4
	c6-2.9,11.6-5.7,16.9-8.7c5.3-3,10.2-5.9,14.7-8.9c4.5-3,8.6-5.9,12.2-8.8c3.3-2.7,6.5-5.5,9.5-8.6c5.4-5.6,8.6-11,9.4-15.1
	c0.4-1.5,0.4-3.1,0.1-4.7c-0.1-0.4-0.2-0.8-0.3-1.2L394,112.3z"/>
<path class="st1" d="M63.3,215.3l-1.9,3.1c-0.6,1-1.4,2.2-2.3,3.7c-0.9,1.5-1.9,3.1-3.1,5l-3.7,6.2c-1.3,2.3-2.8,4.7-4.1,7.4
	c-3.2,5.9-6,11.9-8.4,18.2c-2.7,7.1-4.3,14.5-4.6,22.1c-0.1,1-0.1,2,0,2.9c0,1,0.1,2,0.2,3l0.2,1.5l0.1,0.7v0.4v0.1
	c0,0.2-0.2,0.4-0.5,0.4c-0.2,0-0.4-0.2-0.4-0.5c0-0.2,0.2-0.4,0.5-0.4c0.2,0,0.4,0.2,0.4,0.4v0.2l0.3,1.7c0.1,0.5,0.2,0.9,0.3,1.3
	c0.1,0.4,0.2,0.9,0.4,1.3s0.3,0.9,0.4,1.4l0.5,1.4l0.6,1.4c0.8,1.9,1.7,3.7,2.8,5.4c0.5,0.9,1.1,1.7,1.7,2.6s1.2,1.7,1.9,2.5
	c1.4,1.7,2.8,3.3,4.4,4.8c3.2,3.1,6.7,5.9,10.3,8.3c7.8,5,16.3,8.9,25.3,11.4c4.5,1.4,9.2,2.5,13.8,3.3c1.2,0.2,2.3,0.4,3.5,0.6
	c1.2,0.2,2.3,0.4,3.5,0.5l3.5,0.5l3.7,0.4L127,340c4.8,0.5,9.6,1,14.2,1.6c9.4,1.1,18.4,2.2,27.1,3.5c8.6,1.3,16.7,2.8,24.2,4.4
	c6.9,1.5,13.6,3.4,20.2,5.8c5.9,2.3,11,4.9,14.4,8.3c0.8,0.8,1.5,1.7,2.1,2.7c0.5,0.9,0.9,1.9,1.1,2.9c0.3,1.6,0.1,3.2-0.5,4.6
	c-0.4,0.9-0.8,1.7-1.3,2.4l-0.6,0.7l0.4-0.9c0.3-0.8,0.6-1.7,0.7-2.5c0.2-1.3,0.1-2.7-0.4-3.9c-0.3-0.7-0.8-1.4-1.3-2
	c-0.6-0.7-1.3-1.3-2.1-1.8c-3.3-2.3-8.3-3.9-14.1-5.1c-6.6-1.3-13.2-2.3-19.9-2.9c-7.4-0.8-15.4-1.4-24-1.9c-8.6-0.5-17.6-1-27-1.6
	c-4.7-0.3-9.5-0.6-14.3-0.9l-7.3-0.5l-7.4-0.6l-3.7-0.3l-3.9-0.4c-1.3-0.1-2.6-0.3-3.9-0.5c-1.3-0.2-2.6-0.4-3.9-0.6
	c-5.2-0.9-10.4-2.1-15.4-3.6c-10.3-3-20.1-7.6-29-13.7c-8.8-6.1-16.5-14-21.5-23.4c-2.5-4.7-4.3-9.7-5.2-14.9
	c-0.1-0.7-0.2-1.4-0.3-2l-0.2-1.6V291c0,0,0-0.4,0-0.3v-0.1v-0.5v-0.9l-0.1-1.8c-0.1-1.2,0-2.4,0.1-3.6c0-1.2,0.1-2.4,0.2-3.6
	c0.5-4.5,1.5-9,2.9-13.3l1.1-3c0.3-1,0.8-1.9,1.1-2.9s0.8-1.9,1.2-2.8l1.3-2.7c3.3-6.3,7-12.2,11.3-17.8c1.8-2.5,3.7-4.7,5.4-6.8
	s3.3-3.9,4.8-5.6c3-3.3,5.4-5.8,7.1-7.5L63.3,215.3z"/>
<circle class="st2" cx="89" cy="249.9" r="19.5"/>
<circle class="st3" cx="95.5" cy="247.8" r="12.7"/>
</svg>
